<?xml version="1.0" standalone="no"?>
<!DOCTYPE svg PUBLIC "-//W3C//DTD SVG 20010904//EN"
 "http://www.w3.org/TR/2001/REC-SVG-20010904/DTD/svg10.dtd">
<svg version="1.0" xmlns="http://www.w3.org/2000/svg"
 width="700.000000pt" height="700.000000pt" viewBox="0 0 700.000000 700.000000"
 preserveAspectRatio="xMidYMid meet">
<metadata>
Created by potrace 1.14, written by Peter Selinger 2001-2017
</metadata>
<g transform="translate(0.000000,700.000000) scale(0.100000,-0.100000)"
fill="#000000" stroke="none">
<path d="M1777 6564 c-1 -1 -47 -5 -102 -8 -54 -4 -101 -9 -105 -11 -3 -1 -27
-6 -55 -9 -65 -9 -182 -39 -270 -70 -477 -166 -866 -534 -1082 -1021 -57 -128
-112 -307 -128 -415 -4 -25 -8 -47 -10 -50 -9 -15 -19 -172 -19 -315 -1 -177
5 -255 29 -375 3 -14 8 -38 11 -55 22 -126 111 -366 186 -504 110 -204 195
-310 488 -611 41 -43 183 -189 315 -325 132 -136 272 -280 310 -320 39 -40
138 -142 220 -227 83 -85 256 -264 385 -397 129 -134 270 -279 314 -324 43
-45 185 -192 316 -327 131 -135 266 -274 300 -310 199 -210 368 -373 409 -395
83 -47 183 -65 281 -51 59 9 176 67 220 109 34 34 502 515 595 612 26 28 167
173 314 324 146 151 289 298 316 326 28 29 160 166 295 304 135 139 269 278
299 309 30 32 174 181 321 332 147 151 289 298 315 325 26 28 93 97 149 155
141 146 195 211 278 336 126 189 239 447 273 625 2 12 6 28 9 37 3 9 7 31 10
47 3 17 8 46 11 65 22 126 28 435 10 555 -47 326 -148 597 -315 845 -140 208
-334 400 -535 531 -53 35 -144 89 -149 89 -2 0 -42 17 -88 39 -221 102 -461
152 -728 151 -112 0 -135 -1 -250 -15 -117 -13 -296 -59 -430 -110 -146 -55
-437 -220 -515 -292 -11 -10 -45 -39 -75 -64 -61 -52 -373 -364 -378 -379 -8
-24 -36 -3 -148 111 -210 215 -331 326 -420 387 -176 120 -411 237 -556 276
-29 9 -78 22 -108 30 -83 23 -219 45 -317 51 -118 8 -193 12 -196 9z"/>
</g>
</svg>
